<svg xmlns="http://www.w3.org/2000/svg" version="1.1" xmlns:xlink="http://www.w3.org/1999/xlink" width="1000" height="1000"><g clip-path="url(#SvgjsClipPath1649)"><rect width="1000" height="1000" fill="#fcfdff"></rect><g transform="matrix(11.764705882352942,0,0,11.764705882352942,100,241.17647058823525)"><svg xmlns="http://www.w3.org/2000/svg" version="1.1" xmlns:xlink="http://www.w3.org/1999/xlink" width="68" height="44"><svg width="68" height="44" viewBox="0 0 68 44" fill="none" xmlns="http://www.w3.org/2000/svg">
<path d="M0 42.809V0H0.0567761L22.3129 31.5106L19.4741 30.8861L41.6167 0H41.7303V42.809H35.1443V14.9321L35.5985 18.3386L20.6664 39.4593H20.5529L5.28016 18.3386L6.41568 15.2159V42.809H0Z" fill="#101624"></path>
<path d="M41.7977 18.1393L42.2733 16.7204L57.7733 0.0846558H66.3466L49.2567 18.1393L67.4462 43.0329H59.0428L44.4305 22.3405L41.7977 25.0788V43.0329H34.8358V9.3454L41.5389 0.0846558H41.7977V18.1393Z" fill="#FEC544"></path>
</svg></svg></g></g><defs><clipPath id="SvgjsClipPath1649"><rect width="1000" height="1000" x="0" y="0" rx="100" ry="100"></rect></clipPath></defs></svg>