<svg width="705" height="227" viewBox="0 0 705 227" fill="none" xmlns="http://www.w3.org/2000/svg">
<path d="M0 225.324V0H0.29884L117.444 165.855L102.502 162.568L219.049 0H219.646V225.324H184.981V78.5946L187.372 96.5249L108.777 207.693H108.18L27.792 96.5249L33.7688 80.0888V225.324H0Z" fill="#FDFEFF"/>
<path d="M220 95.4766L222.505 88.0049L304.088 0.445312H349.213L259.263 95.4766L355 226.5H310.771L233.861 117.59L220 132V226.5H183.357V49.1875L218.637 0.445312H220V95.4766Z" fill="#FEC544"/>
<path d="M381.75 75.2078V24.315H381.817L408.276 61.7759L404.901 61.0334L431.225 24.315H431.36V75.2078H423.53V42.0667L424.07 46.1166L406.319 71.2254H406.184L388.027 46.1166L389.377 42.4042V75.2078H381.75ZM451.918 57.5236C451.918 59.4585 452.413 61.2359 453.402 62.8558C454.437 64.4307 455.787 65.7132 457.452 66.7031C459.117 67.6481 460.985 68.1206 463.055 68.1206C465.214 68.1206 467.149 67.6481 468.859 66.7031C470.569 65.7132 471.919 64.4307 472.909 62.8558C473.899 61.2359 474.394 59.4585 474.394 57.5236V26.07H482.156V57.726C482.156 61.2809 481.301 64.4307 479.591 67.1756C477.881 69.8755 475.586 71.9904 472.707 73.5203C469.827 75.0053 466.609 75.7477 463.055 75.7477C459.545 75.7477 456.35 75.0053 453.47 73.5203C450.59 71.9904 448.295 69.8755 446.585 67.1756C444.92 64.4307 444.088 61.2809 444.088 57.726V26.07H451.918V57.5236ZM502.825 44.9016L502.622 47.399L503.702 45.8466L522.129 26.07H532.321L512.004 47.534L533.063 75.2078H523.074L506.267 52.5288L502.825 55.9036V75.2078H494.86V26.07H502.825V44.9016ZM548.483 57.5236C548.483 59.4585 548.978 61.2359 549.968 62.8558C551.003 64.4307 552.353 65.7132 554.018 66.7031C555.683 67.6481 557.55 68.1206 559.62 68.1206C561.78 68.1206 563.715 67.6481 565.425 66.7031C567.135 65.7132 568.485 64.4307 569.475 62.8558C570.465 61.2359 570.96 59.4585 570.96 57.5236V26.07H578.722V57.726C578.722 61.2809 577.867 64.4307 576.157 67.1756C574.447 69.8755 572.152 71.9904 569.272 73.5203C566.392 75.0053 563.175 75.7477 559.62 75.7477C556.11 75.7477 552.915 75.0053 550.035 73.5203C547.156 71.9904 544.861 69.8755 543.151 67.1756C541.486 64.4307 540.653 61.2809 540.653 57.726V26.07H548.483V57.5236ZM634.623 76.9627L596.893 40.3793L599.188 41.3243L599.39 75.2078H591.425V24.3825H591.763L628.954 60.9659L627.131 60.4259L626.996 26.07H634.826V76.9627H634.623ZM648.376 75.2078V26.07H662.348C667.253 26.07 671.415 26.8124 674.835 28.2974C678.255 29.7373 681.022 31.6947 683.137 34.1696C685.252 36.5995 686.782 39.3219 687.727 42.3367C688.717 45.3066 689.212 48.299 689.212 51.3138C689.212 55.0037 688.559 58.311 687.254 61.2359C685.949 64.1608 684.172 66.6806 681.922 68.7956C679.672 70.8655 677.062 72.4629 674.092 73.5878C671.167 74.6678 668.04 75.2078 664.71 75.2078H648.376ZM656.273 67.6481H663.293C665.903 67.6481 668.288 67.2881 670.447 66.5681C672.607 65.8032 674.475 64.7232 676.05 63.3283C677.67 61.8884 678.907 60.1109 679.762 57.996C680.662 55.8811 681.112 53.4737 681.112 50.7739C681.112 47.714 680.595 45.1041 679.56 42.9442C678.57 40.7393 677.242 38.9619 675.577 37.6119C673.957 36.217 672.18 35.2046 670.245 34.5746C668.31 33.9446 666.398 33.6296 664.508 33.6296H656.273V67.6481Z" fill="#FDFEFF"/>
<path d="M389.714 153.986L389.512 156.484L390.592 154.931L409.018 135.154H419.211L398.894 156.619L419.953 184.292H409.963L393.157 161.613L389.714 164.988V184.292H381.75V135.154H389.714V153.986ZM423.156 184.292L444.89 133.13H445.362L467.096 184.292H458.052L442.73 145.482L448.4 141.634L430.918 184.292H423.156ZM436.79 166.068H453.597L456.297 172.75H434.428L436.79 166.068ZM518.679 186.047L480.948 149.464L483.243 150.409L483.445 184.292H475.481V133.467H475.818L513.009 170.05L511.187 169.51L511.052 135.154H518.881V186.047H518.679ZM558.215 145.144C556.46 144.244 554.593 143.479 552.613 142.849C550.633 142.174 548.743 141.837 546.943 141.837C544.513 141.837 542.578 142.377 541.139 143.457C539.744 144.537 539.046 146.021 539.046 147.911C539.046 149.261 539.541 150.454 540.531 151.489C541.521 152.479 542.781 153.356 544.311 154.121C545.841 154.841 547.461 155.539 549.171 156.214C550.656 156.753 552.118 157.406 553.558 158.171C555.043 158.891 556.37 159.791 557.54 160.871C558.71 161.951 559.633 163.301 560.308 164.921C561.028 166.496 561.388 168.453 561.388 170.793C561.388 173.358 560.735 175.72 559.43 177.88C558.125 179.995 556.258 181.682 553.828 182.942C551.398 184.202 548.428 184.832 544.918 184.832C542.893 184.832 540.891 184.607 538.911 184.157C536.976 183.707 535.131 183.1 533.376 182.335C531.621 181.525 530.002 180.625 528.517 179.635L532.026 173.493C533.106 174.303 534.344 175.045 535.739 175.72C537.134 176.395 538.574 176.935 540.059 177.34C541.544 177.7 542.938 177.88 544.243 177.88C545.638 177.88 547.011 177.655 548.361 177.205C549.756 176.755 550.903 176.013 551.803 174.978C552.748 173.943 553.221 172.57 553.221 170.86C553.221 169.465 552.816 168.273 552.006 167.283C551.196 166.293 550.138 165.438 548.833 164.718C547.573 163.953 546.178 163.278 544.648 162.693C543.118 162.108 541.544 161.456 539.924 160.736C538.349 160.016 536.886 159.138 535.536 158.103C534.186 157.023 533.084 155.719 532.229 154.189C531.374 152.659 530.946 150.769 530.946 148.519C530.946 145.819 531.576 143.479 532.836 141.499C534.096 139.519 535.829 137.944 538.034 136.774C540.284 135.604 542.871 134.974 545.796 134.884C549.261 134.884 552.208 135.312 554.638 136.167C557.113 136.977 559.295 137.967 561.185 139.137L558.215 145.144ZM566.587 184.292L588.321 133.13H588.794L610.528 184.292H601.483L586.161 145.482L591.831 141.634L574.349 184.292H566.587ZM580.221 166.068H597.028L599.728 172.75H577.859L580.221 166.068ZM632.749 135.154C635.449 135.154 637.924 135.514 640.173 136.234C642.423 136.909 644.336 137.922 645.911 139.272C647.486 140.622 648.701 142.287 649.556 144.267C650.456 146.201 650.905 148.429 650.905 150.949C650.905 152.884 650.613 154.819 650.028 156.753C649.443 158.688 648.476 160.443 647.126 162.018C645.821 163.593 644.088 164.853 641.928 165.798C639.768 166.743 637.091 167.216 633.896 167.216H626.809V184.292H618.912V135.154H632.749ZM633.829 159.656C635.584 159.656 637.046 159.386 638.216 158.846C639.386 158.261 640.286 157.541 640.916 156.686C641.591 155.831 642.063 154.931 642.333 153.986C642.648 152.996 642.806 152.074 642.806 151.219C642.806 150.409 642.671 149.531 642.401 148.586C642.131 147.596 641.681 146.674 641.051 145.819C640.421 144.919 639.521 144.177 638.351 143.592C637.226 143.007 635.809 142.714 634.099 142.714H626.809V159.656H633.829ZM642.333 164.313L654.888 184.292H645.776L632.951 164.516L642.333 164.313ZM659 184.292L680.734 133.13H681.206L702.94 184.292H693.896L678.574 145.482L684.244 141.634L666.762 184.292H659ZM672.634 166.068H689.441L692.141 172.75H670.272L672.634 166.068Z" fill="#FDFEFF"/>
</svg>
